<?xml version="1.0" encoding="utf-8"?>
<!-- Generator: Adobe Illustrator 24.0.1, SVG Export Plug-In . SVG Version: 6.00 Build 0)  -->
<svg version="1.1" id="Layer_1" xmlns="http://www.w3.org/2000/svg" xmlns:xlink="http://www.w3.org/1999/xlink" x="0px" y="0px"
	 viewBox="0 0 16 16" style="enable-background:new 0 0 16 16;" xml:space="preserve">
<style type="text/css">
	.st0{fill:#B3B3B3;}
</style>
<path class="st0" d="M6.5,7C6.2,7,6,7.2,6,7.5S6.2,8,6.5,8h4C10.8,8,11,7.8,11,7.5S10.8,7,10.5,7H6.5z"/>
<path class="st0" d="M0.5,1C0.2,1,0,1.2,0,1.5S0.2,2,0.5,2h1.1L2,3.6l1.5,8C3.6,11.8,3.8,12,4,12h1c-1.1,0-2,0.9-2,2s0.9,2,2,2
	s2-0.9,2-2s-0.9-2-2-2h7c-1.1,0-2,0.9-2,2s0.9,2,2,2s2-0.9,2-2s-0.9-2-2-2h1c0.2,0,0.4-0.2,0.5-0.4l1.5-8C15,3.3,14.9,3.1,14.6,3
	c0,0-0.1,0-0.1,0H2.9L2.5,1.4C2.4,1.2,2.2,1,2,1H0.5z M4.4,11L3.1,4h10.8l-1.3,7H4.4z M6,14c0,0.6-0.4,1-1,1s-1-0.4-1-1s0.4-1,1-1
	S6,13.4,6,14 M13,14c0,0.6-0.4,1-1,1s-1-0.4-1-1s0.4-1,1-1S13,13.4,13,14"/>
</svg>
