<svg xmlns="http://www.w3.org/2000/svg" viewBox="0 0 562.49 364.7"><defs><style>.cls-1,.cls-3{fill:gray;}.cls-2{fill:#4d4d4d;}.cls-3{font-size:112px;font-family:OpenSans, Open Sans;letter-spacing:0.02em;}</style></defs><title>Asset 1</title><g id="Layer_2" data-name="Layer 2"><g id="Layer_1-2" data-name="Layer 1"><polygon class="cls-1" points="277.42 0 277.42 93.67 261.23 70.46 261.23 0 277.42 0"/><path class="cls-1" d="M277.42,101.07V126.8l-16.19-21.14V78.34Q269.33,89.7,277.42,101.07Z"/><polygon class="cls-1" points="261.23 112.31 277.42 135.51 277.42 215.46 261.23 215.46 261.23 112.31"/><polygon class="cls-1" points="300.35 0 300.35 71.78 284.17 93.88 284.17 0 300.35 0"/><path class="cls-1" d="M300.35,79.43v25.64l-16.18,21.57v-24.4Q292.26,90.84,300.35,79.43Z"/><polygon class="cls-1" points="284.17 134.92 300.35 112.82 300.35 215.46 284.17 215.46 284.17 134.92"/><path class="cls-2" d="M379.57,215.46H358.36L303.21,108.91l-2.34-4.53-.52.69-16.18,21.57-3.4,4.53-3.35-4.37-16.19-21.14-.55-.72-1.95,3.79-55,106.73h-19L247.84,88.19,184.76,0h20.66l55.81,78.34q8.1,11.35,16.19,22.73l3.8,5.33,2.95-4.16q8.08-11.4,16.18-22.81Q328.51,39.71,356.68,0h20.66L313.15,88.19Z"/><text class="cls-3" transform="translate(0 334.35)">KHATTAKS</text></g></g></svg>